<svg width="31" height="36" viewBox="0 0 31 36" fill="none" xmlns="http://www.w3.org/2000/svg">
<path d="M29.6875 4.375L18.5156 17.7344L29.6875 31.1719C30.5469 32.2656 30.4688 33.8281 29.375 34.6875C28.2812 35.5469 26.7188 35.4688 25.8594 34.375L15.3125 21.6406L4.6875 34.375C3.82812 35.4688 2.26562 35.5469 1.17188 34.6875C0.078125 33.8281 0 32.2656 0.859375 31.1719L12.0312 17.7344L0.859375 4.375C0 3.28125 0.078125 1.71875 1.17188 0.859375C2.26562 0 3.82812 0.078125 4.6875 1.17188L15.3125 13.8281L25.8594 1.17188C26.7188 0.078125 28.2812 0 29.375 0.859375C30.4688 1.71875 30.5469 3.28125 29.6875 4.375Z" fill="#FBCB3B"/>
</svg>
